<svg xmlns="http://www.w3.org/2000/svg" xmlns:xlink="http://www.w3.org/1999/xlink" version="1.1" x="0px" y="0px" viewBox="0 0 64 80" style="enable-background:new 0 0 64 64;" xml:space="preserve"><path d="M61,2H3C2.448,2,2,2.447,2,3v58c0,0.553,0.448,1,1,1h58c0.552,0,1-0.447,1-1V3C62,2.447,61.552,2,61,2z M60,4v6H4V4H60z   M4,60V12h56v48H4z"/><rect x="6" y="6" width="2" height="2"/><rect x="10" y="6" width="2" height="2"/><rect x="14" y="6" width="2" height="2"/><rect x="32" y="6" width="26" height="2"/><path d="M54,47c0-0.415-0.256-0.787-0.644-0.935L42.684,42l10.672-4.065C53.744,37.787,54,37.415,54,37s-0.256-0.787-0.644-0.935  L42.684,32l10.672-4.065C53.744,27.787,54,27.415,54,27s-0.256-0.787-0.644-0.935l-21-8c-0.229-0.088-0.482-0.088-0.712,0l-21,8  C10.256,26.213,10,26.585,10,27s0.256,0.787,0.644,0.935L21.316,32l-10.672,4.065C10.256,36.213,10,36.585,10,37  s0.256,0.787,0.644,0.935L21.316,42l-10.672,4.065C10.256,46.213,10,46.585,10,47s0.256,0.787,0.644,0.935l21,8  C31.759,55.979,31.879,56,32,56s0.241-0.021,0.356-0.065l21-8C53.744,47.787,54,47.415,54,47z M32,20.07L50.191,27L32,33.93  L13.809,27L32,20.07z M24.125,33.07l7.519,2.864c0.229,0.088,0.482,0.088,0.712,0l7.519-2.864L50.191,37L32,43.93L13.809,37  L24.125,33.07z M32,53.93L13.809,47l10.316-3.93l7.519,2.864c0.229,0.088,0.482,0.088,0.712,0l7.519-2.864L50.191,47L32,53.93z"/><path d="M11.707,22.293L8.414,19l3.293-3.293l-1.414-1.414l-4,4c-0.391,0.391-0.391,1.023,0,1.414l4,4L11.707,22.293z"/><path d="M53.707,49.293l-1.414,1.414L55.586,54l-3.293,3.293l1.414,1.414l4-4c0.391-0.391,0.391-1.023,0-1.414L53.707,49.293z"/><rect x="48" y="55" width="2" height="2"/><rect x="44" y="55" width="2" height="2"/><rect x="40" y="55" width="2" height="2"/></svg>