<svg xmlns="http://www.w3.org/2000/svg" xmlns:xlink="http://www.w3.org/1999/xlink" version="1.1" x="0px" y="0px" viewBox="0 0 500 625" style="enable-background:new 0 0 500 500;" xml:space="preserve"><g><path d="M229.62,308.06c-10.83,0-19.64,9.01-19.64,20.09c0,11.08,8.81,20.09,19.64,20.09c10.83,0,19.65-9.01,19.65-20.09   C249.27,317.07,240.45,308.06,229.62,308.06z M229.62,341.23c-6.97,0-12.64-5.87-12.64-13.09s5.67-13.09,12.64-13.09   s12.65,5.87,12.65,13.09S236.59,341.23,229.62,341.23z"/><path d="M298.24,308.06c-10.83,0-19.64,9.01-19.64,20.09c0,11.08,8.81,20.09,19.64,20.09s19.64-9.01,19.64-20.09   C317.88,317.07,309.07,308.06,298.24,308.06z M298.24,341.23c-6.97,0-12.64-5.87-12.64-13.09s5.67-13.09,12.64-13.09   s12.64,5.87,12.64,13.09S305.21,341.23,298.24,341.23z"/><path d="M343.56,178.06H188.33c-0.16,0-0.32,0.01-0.48,0.02l-7.45-18.7l-6.5,2.59l8.05,20.2c-0.32,1.11-0.29,2.35,0.11,3.63   l23.66,74.77c0.11,0.36,0.66,2,1.67,3.68c-0.44,0.71-0.8,1.49-1.06,2.33l-12.27,33.39l3.1,1.14v6.64h127.08v-7H201.22l11.71-31.85   c0.03-0.07,0.05-0.14,0.07-0.21c0.04-0.14,0.1-0.26,0.15-0.38h105.7c4.05,0,6.57-4.63,7.34-7.08l23.65-76.2   c0.74-2.36,0.1-3.93-0.57-4.84C347.7,178.06,345.01,178.06,343.56,178.06z M319.5,259.16c-0.29,0.93-0.87,1.78-1.24,2.17H213.84   c-0.11-0.14-0.23-0.32-0.36-0.52v-0.44c-0.08,0-0.16,0.01-0.24,0.01c-0.31-0.56-0.63-1.22-0.85-1.91l-23.22-73.41H342.5   L319.5,259.16z"/></svg>