<svg xmlns="http://www.w3.org/2000/svg" data-name="Layer 1" viewBox="0 0 95 118.75" x="0px" y="0px"><path d="M83.225,59.624a5.311,5.311,0,0,0-3.464-2.51,6.11,6.11,0,0,0-4.767.894L63.218,65.994a6.02,6.02,0,0,0-.4-.842A5.85,5.85,0,0,0,59.248,62.4L40.905,57.487H40.9l-6.074-1.629a9.079,9.079,0,0,0-10.47,4.769,4.059,4.059,0,0,0-.436-.262,3.919,3.919,0,0,0-3.021-.156l-9.3,3.312a1.076,1.076,0,0,0-.653,1.374l6.465,18.161a1.08,1.08,0,0,0,1.013.715,1.058,1.058,0,0,0,.36-.063l9.3-3.312a3.925,3.925,0,0,0,2.244-2.032c.039-.081.058-.167.091-.25l5.117,0c1.963.5,3.754.961,5.4,1.386,7.674,1.984,12.2,3.135,15.758,3.135,4.987,0,8.053-2.265,15.184-7.671,2.563-1.942,5.751-4.359,9.78-7.225A6.118,6.118,0,0,0,83.225,59.624ZM28.383,77.442a1.792,1.792,0,0,1-1.023.928l-8.289,2.952L13.327,65.187l8.289-2.953a1.815,1.815,0,0,1,2.306,1.1l4.532,12.737A1.785,1.785,0,0,1,28.383,77.442ZM80.406,65.983c-4.056,2.884-7.259,5.312-9.833,7.263-11.5,8.719-11.5,8.72-29.1,4.169-1.682-.436-3.519-.91-5.536-1.422L35.8,75.96l-5.166,0a3.967,3.967,0,0,0-.156-.618L25.947,62.609c-.01-.028-.026-.051-.037-.079a6.908,6.908,0,0,1,8.357-4.595L41.967,60v0l16.724,4.482a3.744,3.744,0,1,1-1.937,7.233L38.41,66.8a1.075,1.075,0,1,0-.556,2.076L56.2,73.788a5.888,5.888,0,0,0,7.218-4.167,5.92,5.92,0,0,0,.193-1.293L76.2,59.787a4,4,0,0,1,3.079-.577A3.183,3.183,0,0,1,81.363,60.7,3.931,3.931,0,0,1,80.406,65.983ZM33.136,30.731l.106,7.562,3.969,1.228a19.5,19.5,0,0,0,2.041,4.743L37.42,47.989l5.419,5.27,3.675-1.936a19.4,19.4,0,0,0,4.8,1.906l1.337,3.932,7.561-.1,1.228-3.97a19.45,19.45,0,0,0,4.744-2.04l3.723,1.832,5.273-5.42L73.24,43.786a19.4,19.4,0,0,0,1.908-4.8l3.932-1.338-.107-7.559-3.967-1.229a19.429,19.429,0,0,0-2.042-4.744L74.8,20.394l-5.422-5.273L65.705,17.06a19.466,19.466,0,0,0-4.8-1.91l-1.337-3.931-7.561.107-1.228,3.968a19.414,19.414,0,0,0-4.744,2.041L42.31,15.5l-5.27,5.422L38.976,24.6a19.452,19.452,0,0,0-1.907,4.8Zm5.895-.284a17.342,17.342,0,0,1,2.095-5.273l.313-.521L39.671,21.3l3.092-3.182,3.4,1.675.511-.328a17.294,17.294,0,0,1,5.213-2.242l.589-.147,1.12-3.625,4.436-.062,1.223,3.591.594.13a17.361,17.361,0,0,1,5.273,2.1l.52.313L69,17.752l3.182,3.093-1.675,3.4.328.511a17.3,17.3,0,0,1,2.242,5.212l.146.59,3.626,1.122.062,4.434-3.593,1.227-.128.592a17.327,17.327,0,0,1-2.1,5.27l-.315.521,1.771,3.354-3.093,3.18-3.4-1.673-.511.328a17.286,17.286,0,0,1-5.211,2.24l-.59.146-1.122,3.627-4.435.061L52.96,51.4l-.593-.129a17.317,17.317,0,0,1-5.273-2.095l-.521-.315L43.22,50.628l-3.181-3.092,1.673-3.4-.328-.51a17.362,17.362,0,0,1-2.243-5.212l-.146-.59L35.371,36.7l-.063-4.438L38.9,31.041ZM56.1,46.13l.172,0a11.8,11.8,0,1,0-.172,0ZM49.089,27.368a9.789,9.789,0,1,1,7.157,16.611H56.1a9.789,9.789,0,0,1-7.015-16.611Z"/><text x="0" y="110" fill="#000000" font-size="5px" font-weight="bold" font-family="'Helvetica Neue', Helvetica, Arial-Unicode, Arial, Sans-serif">Created by Ifanicon</text><text x="0" y="115" fill="#000000" font-size="5px" font-weight="bold" font-family="'Helvetica Neue', Helvetica, Arial-Unicode, Arial, Sans-serif">from the Noun Project</text></svg>